<?xml version="1.0" standalone="no"?>
<!DOCTYPE svg PUBLIC "-//W3C//DTD SVG 20010904//EN"
 "http://www.w3.org/TR/2001/REC-SVG-20010904/DTD/svg10.dtd">
<svg version="1.0" xmlns="http://www.w3.org/2000/svg"
 width="306.000000pt" height="279.000000pt" viewBox="0 0 306.000000 279.000000"
 preserveAspectRatio="xMidYMid meet">
<metadata>
Created by potrace 1.10, written by Peter Selinger 2001-2011
</metadata>
<g transform="translate(0.000000,279.000000) scale(0.100000,-0.100000)"
fill="#ffffff" stroke="none">
<path d="M143 2701 c-62 -24 -88 -54 -101 -114 -8 -37 -12 -398 -12 -1272 0
-1254 0 -1260 37 -1272 15 -5 73 55 73 75 0 7 7 15 15 18 8 4 15 10 15 16 0 5
27 45 60 88 33 43 60 84 60 90 0 6 7 13 15 16 8 4 15 10 15 16 0 10 115 163
129 173 5 3 544 5 1196 5 867 0 1204 3 1251 12 74 13 113 47 132 114 17 59 17
1851 0 1923 -13 59 -43 90 -108 114 -42 16 -159 17 -1390 16 -1230 -1 -1349
-2 -1387 -18z m2769 -66 c15 -4 32 -12 38 -19 7 -10 10 -300 10 -987 0 -921
-1 -975 -18 -991 -17 -17 -81 -18 -1263 -18 l-1246 0 -25 -22 c-14 -13 -34
-36 -44 -53 -10 -16 -43 -64 -74 -105 -30 -42 -59 -83 -65 -92 -76 -123 -115
-164 -115 -120 -4 590 3 2369 9 2380 5 9 23 21 40 27 33 11 2702 11 2753 0z"/>
<path d="M375 2017 c-3 -6 -4 -201 -3 -432 l3 -420 180 -3 c199 -3 263 8 340
57 130 85 141 286 20 358 -81 48 -83 50 -60 59 44 16 94 66 110 109 22 57 14
119 -25 176 -31 47 -63 67 -149 93 -69 21 -409 24 -416 3z m402 -122 c60 -40
66 -140 12 -193 -31 -30 -86 -42 -191 -42 -74 0 -78 7 -78 130 0 93 3 111 18
120 26 17 208 5 239 -15z m19 -367 c41 -28 54 -56 54 -116 -1 -54 -14 -81 -52
-112 -23 -17 -46 -22 -131 -27 -150 -8 -147 -11 -147 141 0 67 3 126 7 129 3
4 58 7 122 7 102 0 118 -2 147 -22z"/>
<path d="M1155 2018 c-3 -7 -4 -202 -3 -433 l3 -420 243 -3 c159 -1 242 1 243
8 0 5 1 28 1 50 0 22 -1 44 -1 50 -1 6 -69 11 -168 12 l-168 3 -5 370 -5 370
-68 3 c-48 2 -69 -1 -72 -10z"/>
<path d="M1785 2020 c-11 -17 -9 -840 2 -851 6 -6 34 -9 64 -7 l54 3 2 275 c1
151 2 286 3 298 0 35 18 23 49 -33 60 -110 101 -184 146 -270 88 -167 96 -175
158 -157 30 8 39 21 139 212 122 232 151 281 159 273 5 -5 10 -141 11 -303 l3
-295 54 -3 c30 -2 58 1 63 6 10 10 12 837 3 852 -4 6 -34 10 -69 10 -75 0 -75
0 -143 -130 -28 -52 -76 -144 -108 -204 -32 -60 -73 -137 -90 -170 -36 -69
-58 -81 -73 -39 -6 15 -33 69 -60 118 -27 50 -70 131 -96 180 -93 175 -119
220 -134 233 -19 14 -128 16 -137 2z"/>
</g>
</svg>
